<svg enable-background="new 0 0 529.3 56.2" viewBox="0 0 529.3 56.2" xmlns="http://www.w3.org/2000/svg"><g fill="#00c4cc"><path d="m.1 37.1h12.4c0 .5-.1 1-.1 1.5-.1 1.9.5 3.8 1.8 5.3 1.5 1.7 3.6 2.6 5.8 2.4 2 .1 4-.6 5.6-1.9 1.4-1.2 2.3-3 2.2-4.9 0-.9-.2-1.7-.6-2.5-.4-.7-1-1.3-1.6-1.8-.8-.6-1.6-1-2.4-1.4-.9-.4-1.9-.8-3-1.2-2.3-.9-4.5-1.8-6.5-2.7-1.9-.8-3.6-1.8-5.2-3.1-1.4-1.1-2.6-2.6-3.5-4.2-.9-1.8-1.3-3.9-1.3-5.9-.1-2.6.6-5.1 1.8-7.4 1.1-2.1 2.7-3.8 4.6-5.2 2-1.4 4.2-2.5 6.6-3.1 2.5-.7 5.1-1 7.6-1 2.8-.1 5.5.4 8.1 1.4 2.1.8 4 2.1 5.5 3.7 1.4 1.6 2.4 3.4 3 5.4.4 1.5.6 3 .6 4.5 0 .7 0 1.3-.1 2h-12.3c0-.5.1-.9.1-1.4.1-1.5-.3-3-1.2-4.2-1.2-1.4-3-2.2-4.8-2-1.8 0-3.5.5-5 1.5-1.4 1-2.2 2.6-2.1 4.3 0 1.5.7 2.8 1.8 3.8 1.6 1.2 3.4 2.2 5.3 2.8 2.4.9 4.6 1.7 6.6 2.6 1.9.8 3.7 1.9 5.4 3.1 1.5 1.1 2.8 2.6 3.6 4.3.9 1.9 1.4 4 1.3 6.2.1 5.1-2.2 10-6.2 13.2-2.1 1.6-4.4 2.9-6.9 3.7-2.8.9-5.6 1.3-8.5 1.3-2.8.1-5.5-.4-8.2-1.2-2.3-.8-4.4-2-6.1-3.7s-2.9-3.7-3.6-6c-.4-1.9-.6-3.8-.6-5.7 0-.8 0-1.7.1-2.5z"/><path d="m43.7 54.9 5.7-53.5h12.5l-5.7 53.5z"/><path d="m63.4 54.9 5.6-53.6h14.4l10.3 37.2 18.1-37.2h14l-5.6 53.5h-12.1l3.5-33.2-15 33.3h-9.2l-8.4-33.2-3.5 33.2z"/><path d="m127.4 54.9 5.6-53.6h22.4c2.5 0 5 .4 7.4 1.4 2.1.9 3.9 2.2 5.5 3.8 1.5 1.6 2.7 3.5 3.4 5.6.8 2.2 1.2 4.5 1.2 6.8 0 2.7-.5 5.5-1.6 8-1 2.5-2.6 4.8-4.5 6.7-1.9 2-4.3 3.6-6.8 4.7-2.7 1.2-5.7 1.8-8.7 1.7h-10l-1.6 14.8zm15-25h8.5c1.3 0 2.7-.3 3.9-.8 1.1-.5 2.2-1.3 3-2.2.9-1 1.5-2.1 2-3.2.5-1.2.7-2.5.7-3.8 0-1.1-.2-2.2-.5-3.2s-.9-1.9-1.5-2.7c-.7-.8-1.5-1.4-2.4-1.8-1-.4-2.1-.7-3.2-.6h-8.5z"/><path d="m172.8 54.9 5.7-53.5h12.4l-4.6 42.8h15.2l-1.1 10.7z"/><path d="m204.4 54.9 5.7-53.5h32.6l-1 10h-20.3l-1.3 12.1h20.3l-1 10h-20.4l-1.2 11.5h20.2l-1 10z"/><path d="m259.2 54.9 5.7-53.5h32.6l-1.1 10.4h-20.3l-1.5 14.5h20.3l-1.1 10.1h-20.2l-1.9 18.5z"/><path d="m298.2 54.9 5.7-53.5h12.5l-5.7 53.5z"/><path d="m318.5 12.1 1.1-10.7h36.6l-1.1 10.7h-12.2l-4.5 42.8h-12.4l4.5-42.8z"/><path d="m353.8 54.9 5.6-53.5h12.9l15.7 34.8 3.7-34.9h12.4l-5.7 53.5h-13l-15.7-34.4-3.6 34.4z"/><path d="m405.5 54.9 5.7-53.5h32.6l-1 10h-20.3l-1.3 12.1h20.3l-1 10h-20.3l-1.2 11.5h20.2l-1 10z"/><path d="m444.5 37.1h12.4c-.1.5-.1 1-.1 1.5-.1 1.9.5 3.8 1.8 5.3 1.5 1.7 3.6 2.6 5.9 2.4 2 .1 4-.6 5.6-1.9 1.4-1.2 2.3-3 2.2-4.9 0-.9-.2-1.7-.6-2.5-.4-.7-1-1.3-1.6-1.8-.8-.6-1.6-1-2.4-1.4-.9-.4-1.9-.8-3-1.2-2.3-.9-4.5-1.8-6.5-2.7-1.9-.8-3.6-1.8-5.2-3.1-1.4-1.2-2.6-2.6-3.5-4.2-.9-1.8-1.3-3.9-1.3-5.9 0-2.6.6-5.1 1.9-7.4 1.1-2.1 2.7-3.8 4.6-5.2 2-1.4 4.2-2.5 6.6-3.1 2.5-.7 5.1-1 7.6-1 2.8-.1 5.5.4 8.1 1.4 4.2 1.5 7.3 4.9 8.5 9.2.4 1.5.6 2.9.5 4.4 0 .7 0 1.3-.1 2h-12.3c.1-.5.1-.9.1-1.4.1-1.5-.3-3-1.2-4.2-1.2-1.4-3-2.2-4.8-2-1.8 0-3.5.5-5 1.5-1.4 1-2.2 2.6-2.1 4.3 0 1.5.6 2.9 1.8 3.8 1.6 1.2 3.4 2.2 5.3 2.8 2.4.9 4.6 1.7 6.6 2.6 1.9.8 3.7 1.9 5.4 3.1 3.3 2.4 5.2 6.3 5 10.5.1 5.1-2.2 10-6.2 13.2-2.1 1.6-4.4 2.9-6.9 3.7-2.8.9-5.7 1.4-8.6 1.3-2.8 0-5.5-.4-8.1-1.2-2.3-.8-4.4-2-6.1-3.7s-2.9-3.7-3.5-6c-.6-1.8-.8-3.7-.8-5.7-.1-.8 0-1.7 0-2.5z"/><path d="m487.8 37.1h12.4c-.1.5-.1 1-.1 1.5-.1 1.9.5 3.8 1.8 5.3 1.5 1.7 3.6 2.6 5.9 2.4 2 .1 4-.6 5.6-1.9 1.4-1.2 2.3-3 2.2-4.9 0-.9-.2-1.7-.6-2.5-.4-.7-1-1.3-1.6-1.8-.8-.6-1.6-1-2.4-1.4-.9-.4-1.9-.8-3-1.2-2.3-.9-4.5-1.8-6.5-2.7-1.9-.8-3.6-1.8-5.2-3.1-1.4-1.2-2.6-2.6-3.5-4.2-.9-1.8-1.3-3.9-1.3-5.9-.1-2.6.5-5.1 1.8-7.4 1.1-2.1 2.7-3.8 4.6-5.2 2-1.4 4.2-2.5 6.6-3.1 2.5-.7 5.1-1 7.6-1 2.8-.1 5.5.4 8.1 1.4 4.2 1.5 7.3 4.9 8.5 9.2.4 1.5.6 3 .6 4.5 0 .7 0 1.3-.1 2h-12.4c.1-.5.1-.9.1-1.4.1-1.5-.3-3-1.2-4.2-1.2-1.4-3-2.2-4.8-2-1.8 0-3.5.5-5 1.5-1.4 1-2.2 2.6-2.1 4.3 0 1.4.6 2.8 1.7 3.7 1.6 1.2 3.4 2.2 5.3 2.8 2.4.9 4.6 1.7 6.6 2.6 1.9.8 3.7 1.9 5.4 3.1 3.3 2.4 5.2 6.3 5 10.5.1 5.1-2.2 10-6.2 13.2-2.1 1.6-4.4 2.9-6.9 3.7-2.8.9-5.6 1.3-8.5 1.3-2.8.1-5.5-.3-8.2-1.2-2.3-.8-4.4-2-6.1-3.7s-2.9-3.7-3.5-6c-.6-1.8-.8-3.7-.8-5.7.1-.8.1-1.7.2-2.5z"/></g></svg>